<svg id="_x33_0" enable-background="new 0 0 64 64" height="512" viewBox="0 0 64 64" width="512" xmlns="http://www.w3.org/2000/svg" xmlns:xlink="http://www.w3.org/1999/xlink"><linearGradient id="SVGID_1_" gradientUnits="userSpaceOnUse" x1="32" x2="32" y1="63" y2="1"><stop offset="0" stop-color="#9f2fff"/><stop offset="1" stop-color="#0bb1d3"/></linearGradient><path d="m37.472 21.302c-1.758.725-2.747 2.552-2.404 4.443.285 1.571 1.524 2.843 3.083 3.167 1.001.208 2.003.044 2.85-.448.603.352 1.289.536 1.997.536.281 0 .566-.029.851-.088 1.559-.324 2.798-1.596 3.083-3.167.343-1.891-.645-3.718-2.404-4.444-.316-.13-.528-.484-.528-.882v-4.839c0-.397.212-.752.528-.882 1.759-.726 2.747-2.553 2.404-4.444-.285-1.57-1.524-2.843-3.083-3.167-1.003-.208-2.004-.044-2.849.45-.846-.493-1.846-.658-2.849-.448-1.559.323-2.798 1.596-3.083 3.167-.343 1.891.646 3.718 2.404 4.443.316.13.528.484.528.882v4.839c0 .397-.212.751-.528.882zm.762-8.452c-.879-.363-1.372-1.283-1.199-2.237.139-.765.765-1.409 1.522-1.566.649-.133 1.295.034 1.771.465l.672.607.671-.608c.475-.43 1.121-.6 1.771-.465.758.157 1.384.801 1.522 1.566.173.955-.319 1.875-1.199 2.238-1.072.442-1.765 1.514-1.765 2.731v4.839c0 1.217.693 2.289 1.766 2.731.879.363 1.372 1.283 1.199 2.238-.139.765-.765 1.409-1.522 1.566-.651.135-1.296-.035-1.771-.465l-.672-.609-.671.608c-.476.431-1.123.599-1.772.465-.757-.157-1.383-.801-1.522-1.565-.173-.955.32-1.875 1.199-2.238 1.073-.443 1.766-1.515 1.766-2.732v-4.839c0-1.216-.693-2.288-1.766-2.73zm.766 20.15h-4v-2h4zm2-2h6v2h-6zm6 6h-12v-2h12zm-26-26h-4v-2h4zm8 0h-6v-2h6zm0 4h-12v-2h12zm-8 4h-4v-2h4zm2-2h6v2h-6zm37-12h-1v-2c0-1.103-.897-2-2-2h-9.78c-5.773 0-11.258 2.359-15.22 6.51-3.962-4.151-9.447-6.51-15.22-6.51h-9.78c-1.103 0-2 .897-2 2v2h-1c-1.654 0-3 1.346-3 3v38c0 1.654 1.346 3 3 3h8v11c0 1.654 1.346 3 3 3s3-1.346 3-3v-10.93c3.837.32 7.417 2.119 9.939 5.061 1.018 1.188 2.498 1.869 4.062 1.869 1.563 0 3.042-.681 4.06-1.868.863-1.006 1.852-1.873 2.939-2.606v6.093l5-2.5 5 2.5v-8.619h11c1.654 0 3-1.346 3-3v-38c0-1.654-1.346-3-3-3zm-9 36v-38h2v38zm4-38h2v38h-2zm-7.78 0h1.78v38h-1.781c-5.309 0-10.358 2.015-14.219 5.563v-37.178c3.613-4.059 8.773-6.385 14.22-6.385zm-16.22 6.385v37.151c-1.746-1.601-3.754-2.893-5.935-3.828 2.431-2.52 3.935-5.939 3.935-9.708 0-3.916-1.621-7.457-4.221-10h4.221v-2h-6.826c-2.101-1.261-4.55-2-7.174-2v-16h1.78c5.447 0 10.607 2.326 14.22 6.385zm-15 39.615h-2v-2.051c.332.024.662.051 1 .051s.668-.027 1-.051zm-1-4c-6.617 0-12-5.383-12-12s5.383-12 12-12 12 5.383 12 12-5.383 12-12 12zm-4-25.41v-16.59h2v16.16c-.683.098-1.352.236-2 .43zm-2-16.59v17.37c-.7.334-1.37.717-2 1.157v-18.527zm-6 5c0-.551.449-1 1-1h1v16.221c-.766.783-1.433 1.661-2 2.605zm1 39c-.551 0-1-.448-1-1v-5.826c1.954 3.255 5.182 5.657 9 6.494v.332zm11 14c-.551 0-1-.448-1-1v-9h2v9c0 .552-.449 1-1 1zm19.542-8.169c-.636.743-1.563 1.169-2.542 1.169s-1.906-.426-2.542-1.169c-2.902-3.386-7.036-5.438-11.458-5.763v-.4c1.984-.435 3.805-1.298 5.377-2.478 3.038 1.122 5.751 2.997 7.864 5.461l.759.885.759-.886c1.747-2.038 3.879-3.652 6.241-4.782v4.316c-1.686.954-3.19 2.168-4.458 3.647zm9.458.051-3 1.5v-10.336c1.91-.66 3.933-1.016 6-1.04v11.376zm17-6.882c0 .552-.449 1-1 1h-11v-4h8c1.103 0 2-.897 2-2v-34h1c.551 0 1 .449 1 1zm-46-23c-5.514 0-10 4.486-10 10s4.486 10 10 10 10-4.486 10-10-4.486-10-10-10zm0 18c-4.411 0-8-3.589-8-8s3.589-8 8-8 8 3.589 8 8-3.589 8-8 8z" fill="url(#SVGID_1_)"/></svg>