<svg height="496pt" viewBox="0 -72 496 496" width="496pt" xmlns="http://www.w3.org/2000/svg" xmlns:xlink="http://www.w3.org/1999/xlink"><linearGradient id="a" gradientUnits="userSpaceOnUse" x1="248" x2="248" y1="352" y2="0"><stop offset="0" stop-color="#9f2fff"/><stop offset="1" stop-color="#0bb1d3"/></linearGradient><path d="m248 80c-66.167969 0-120 53.832031-120 120s53.832031 120 120 120 120-53.832031 120-120-53.832031-120-120-120zm104 120c0 25.800781-9.496094 49.382812-25.113281 67.574219l-70.886719-70.886719v-100.28125c53.609375 4.105469 96 48.945312 96 103.59375zm-112-103.59375v95.59375h-95.59375c3.90625-50.960938 44.632812-91.6875 95.59375-95.59375zm-95.59375 111.59375h100.28125l70.886719 70.886719c-18.191407 15.617187-41.773438 25.113281-67.574219 25.113281-54.648438 0-99.480469-42.390625-103.59375-96zm302.378906 47.734375 43.351563-55.734375-43.351563-55.734375c-47.585937-61.175781-119.320312-96.265625-196.824218-96.265625h-8.058594c-74.78125 0-144.941406 33.113281-192.488282 90.832031l-43.550781 52.886719 43.351563 58.832031c45.847656 62.226563 118.824218 99.792969 195.960937 101.296875.945313.023438 1.871094.152344 2.824219.152344.246094 0 .480469-.03125.726562-.039062.410157 0 .816407.039062 1.234376.039062 77.511718 0 149.246093-35.089844 196.824218-96.265625zm-198.058594 80.226563c-1.183593-.007813-2.367187-.082032-3.550781-.105469-73.679687-1.527344-133.175781-61.816407-133.175781-135.855469 0-74.992188 61.007812-136 136-136s136 61.007812 136 136c0 74.742188-60.617188 135.566406-135.273438 135.960938zm-186.628906-94.882813-35.960937-48.804687 35.632812-43.265626c24.796875-30.113281 56.175781-53.039062 91.207031-67.457031-34.6875 27.882813-56.976562 70.585938-56.976562 118.449219 0 43.390625 18.375 82.496094 47.640625 110.214844-31.792969-16.277344-59.90625-39.765625-81.542969-69.136719zm337.902344-41.078125c0-45.839844-20.488281-86.910156-52.6875-114.808594 33.535156 15.375 63.351562 38.695313 86.839844 68.898438l35.710937 45.910156-35.710937 45.902344c-23.488282 30.203125-53.296875 53.53125-86.839844 68.90625 32.199219-27.898438 52.6875-68.96875 52.6875-114.808594zm94.710938-60.34375-13.429688 8.695312c-.855469-1.328124-87.5625-132.351562-233.28125-132.351562s-232.425781 131.023438-233.289062 132.351562l-13.429688-8.695312c3.695312-5.703125 92.144531-139.65625 246.71875-139.65625s243.023438 133.953125 246.710938 139.65625zm-254.710938 108.34375h-64v-16h64zm40 16v16h-48v-16zm-80 0h16v16h-16zm24-120h-40v-16h40zm0 32h-40v-16h40zm56 32v-16h16v16zm48 0h-16v-16h16zm-312 72h-16v-16h16zm0 32h-16v-16h16zm0 32h-16v-16h16zm32-32h-16v-16h16zm-16 16h16v16h-16zm48 0v16h-16v-16zm304 0h112v16h-112zm48-32h64v16h-64zm0 0" fill="url(#a)"/></svg>