<svg id="Layer_5" enable-background="new 0 0 64 64" height="512" viewBox="0 0 64 64" width="512" xmlns="http://www.w3.org/2000/svg" xmlns:xlink="http://www.w3.org/1999/xlink"><linearGradient id="SVGID_1_" gradientUnits="userSpaceOnUse" x1="32" x2="32" y1="63" y2="1"><stop offset="0" stop-color="#9f2fff"/><stop offset="1" stop-color="#0bb1d3"/></linearGradient><path d="m39.468 30.13c-.212-.551-.488-1.081-.818-1.573l1.661-1.114c.413.616.757 1.278 1.023 1.968zm.532 2.87v.214c0 .144-.004.288-.011.431l1.997.104c.009-.179.014-.356.014-.535v-.214c0-.483-.035-.969-.104-1.443l-1.979.287c.055.38.083.768.083 1.156zm-.972 4.036 1.757.956c.354-.652.636-1.343.837-2.054l-1.924-.545c-.161.568-.386 1.121-.67 1.643zm-13.777.473c-.818-1.285-1.251-2.77-1.251-4.295v-.214h-2v.214c0 1.905.541 3.762 1.563 5.369l1.879 2.954 1.688-1.073zm1.465 6.028 1.272 2 1.688-1.073-1.272-2zm5.284-14.537c1.103 0 2 .897 2 2h2c0-1.858-1.28-3.411-3-3.858v-2.142h-2v2h-3v4c0 2.206 1.794 4 4 4 1.103 0 2 .897 2 2v2h-2c-1.103 0-2-.897-2-2h-2c0 1.858 1.28 3.411 3 3.858v2.142h2v-2h3v-4c0-2.206-1.794-4-4-4-1.103 0-2-.897-2-2v-2zm-11.689-19.376-.498-.624.498-.624c1.042-1.305 5.136-3.376 11.689-3.376s10.647 2.071 11.689 3.376l.498.624-.498.624c-1.042 1.305-5.136 3.376-11.689 3.376s-10.647-2.071-11.689-3.376zm2.377-.624c1.431.846 4.564 2 9.312 2s7.881-1.154 9.312-2c-1.431-.846-4.564-2-9.312-2s-7.881 1.154-9.312 2zm-6.688 0c0-4.486 7.028-8 16-8s16 3.514 16 8-7.028 8-16 8-16-3.514-16-8zm2 0c0 2.838 5.75 6 14 6s14-3.162 14-6-5.75-6-14-6-14 3.162-14 6zm29.485 15h15.515v1c0 2.373-1.189 4.47-3 5.736v.264c0 2.792-1.647 5.2-4.016 6.323-.171 3.709-3.233 6.677-6.984 6.677h-7.269l-1.909 3h.178c1.654 0 3 1.346 3 3 0 .771-.301 1.468-.78 2 .48.532.78 1.229.78 2 0 1.654-1.346 3-3 3h-.258c-.899 3.474-4.083 6-7.742 6s-6.843-2.526-7.742-6h-.258c-1.654 0-3-1.346-3-3 0-.771.301-1.468.78-2-.48-.532-.78-1.229-.78-2 0-1.654 1.346-3 3-3h.178l-1.909-3h-7.269c-3.751 0-6.813-2.968-6.984-6.677-2.369-1.123-4.016-3.531-4.016-6.323v-.264c-1.811-1.266-3-3.363-3-5.736v-1h15.515c1.397 0 2.738.415 3.879 1.178 2.518-3.725 6.781-6.178 11.606-6.178s9.088 2.453 11.606 6.178c1.142-.763 2.482-1.178 3.879-1.178zm-26.489 18-.808-1.269c-1.431-2.251-2.188-4.85-2.188-7.517v-.214c0-2.174.512-4.225 1.4-6.063-.841-.599-1.837-.937-2.885-.937h-13.414c.464 2.279 2.484 4 4.899 4h4v2h-4c-.669 0-1.314-.1-1.927-.276.355 2.412 2.418 4.276 4.927 4.276h5v2h-5c-.308 0-.608-.027-.906-.065.44 2.31 2.469 4.065 4.906 4.065zm16.654 15h-11.301c.834 2.343 3.084 4 5.651 4 2.566 0 4.816-1.657 5.65-4zm3.35-3c0-.551-.449-1-1-1h-16c-.551 0-1 .449-1 1s.449 1 1 1h16c.551 0 1-.449 1-1zm-1-5h-16c-.551 0-1 .449-1 1s.449 1 1 1h16c.551 0 1-.449 1-1s-.449-1-1-1zm-2.423-2c.149-.353.316-.694.518-1.011l4.03-6.333c1.226-1.928 1.875-4.156 1.875-6.442v-.214c0-6.617-5.383-12-12-12s-12 5.383-12 12v.214c0 2.286.649 4.514 1.876 6.443l4.03 6.332c.201.317.368.659.518 1.011zm23.322-21h-13.414c-1.049 0-2.045.338-2.886.937.889 1.838 1.401 3.889 1.401 6.063v.214c0 2.667-.757 5.266-2.188 7.516l-.808 1.27h5.996c2.437 0 4.466-1.755 4.906-4.065-.298.038-.598.065-.906.065h-5v-2h5c2.509 0 4.572-1.864 4.927-4.276-.613.176-1.258.276-1.927.276h-4v-2h4c2.415 0 4.435-1.721 4.899-4z" fill="url(#SVGID_1_)"/></svg>